<?xml version="1.0" encoding="utf-8"?>
<!-- Generator: Adobe Illustrator 18.0.0, SVG Export Plug-In . SVG Version: 6.00 Build 0)  -->
<!DOCTYPE svg PUBLIC "-//W3C//DTD SVG 1.1//EN" "http://www.w3.org/Graphics/SVG/1.1/DTD/svg11.dtd">
<svg version="1.1" id="Layer_1" xmlns="http://www.w3.org/2000/svg" xmlns:xlink="http://www.w3.org/1999/xlink" x="0px" y="0px"
	 viewBox="0 0 20 20" enable-background="new 0 0 20 20" xml:space="preserve">
<path fill="#FFFFFF" d="M15.1,13.4h-4.8V13c0.2,0,0.5-0.1,0.8-0.1c0.3-0.1,0.4-0.1,0.4-0.2c0,0,0-0.1,0-0.1c0,0,0-0.1-0.1-0.2
	l-0.7-1.8h-3c-0.1,0.2-0.1,0.4-0.2,0.6c-0.1,0.2-0.2,0.4-0.2,0.6c-0.1,0.2-0.1,0.4-0.1,0.5c0,0.1,0,0.2,0,0.2c0,0.1,0.1,0.2,0.3,0.3
	c0.2,0.1,0.5,0.2,1,0.2v0.5H4.9V13c0.1,0,0.3,0,0.5-0.1s0.3-0.1,0.4-0.1c0.2-0.1,0.3-0.2,0.4-0.4c0.1-0.1,0.2-0.3,0.3-0.5
	c0.5-1.2,1-2.3,1.4-3.5s1-2.4,1.6-3.8h1.2c0.8,2,1.4,3.5,1.9,4.7s0.8,2.1,1.2,2.9c0.1,0.1,0.1,0.2,0.2,0.3c0.1,0.1,0.2,0.2,0.4,0.3
	c0.1,0.1,0.2,0.1,0.4,0.1c0.2,0,0.3,0.1,0.4,0.1V13.4z M10.5,9.9L9.3,6.7L8,9.9H10.5z"/>
<path fill="#FFFFFF" d="M20,20H0V0h20V20z M1,19h18V1H1V19z"/>
<g>
	<g>
		<polygon fill="#FFFFFF" points="6.4,5 4.7,3.3 5.9,2.1 2.5,2.1 2.5,5.6 3.7,4.3 5.4,6 		"/>
		<polygon fill="#FFFFFF" points="13.6,5 15.3,3.3 14.1,2.1 17.5,2.1 17.5,5.6 16.3,4.3 14.6,6 		"/>
	</g>
	<g>
		<polygon fill="#FFFFFF" points="13.6,15 15.3,16.7 14.1,17.9 17.5,17.9 17.5,14.4 16.3,15.7 14.6,14 		"/>
		<polygon fill="#FFFFFF" points="6.4,15 4.7,16.7 5.9,17.9 2.5,17.9 2.5,14.4 3.7,15.7 5.4,14 		"/>
	</g>
</g>
</svg>
