<?xml version="1.0" encoding="utf-8"?>
<!-- Generator: Adobe Illustrator 18.0.0, SVG Export Plug-In . SVG Version: 6.00 Build 0)  -->
<!DOCTYPE svg PUBLIC "-//W3C//DTD SVG 1.1//EN" "http://www.w3.org/Graphics/SVG/1.1/DTD/svg11.dtd">
<svg version="1.1" id="Layer_1" xmlns="http://www.w3.org/2000/svg" xmlns:xlink="http://www.w3.org/1999/xlink" x="0px" y="0px"
	 viewBox="0 0 29.989 27.278" style="enable-background:new 0 0 29.989 27.278;" xml:space="preserve">
<style type="text/css">
	.st0{fill:#FFFFFF;}
</style>
<path class="st0" d="M12.885,15.926c0.134,0.134,0.312,0.212,0.502,0.212c0.09,0,0.189-0.022,0.268-0.056
	c0.269-0.112,0.446-0.368,0.446-0.658v-1.785c2.086,0,3.269,0.334,3.949,1.104c0.813,0.915,1.025,2.587,0.691,5.276
	c-0.022,0.156,0.066,0.312,0.212,0.368c0.044,0.022,0.101,0.034,0.145,0.034c0.101,0,0.201-0.044,0.279-0.134
	c0.066-0.089,1.862-2.264,1.862-4.506c0-2.755-0.736-6.425-7.139-6.425V7.571c0-0.29-0.178-0.546-0.446-0.658
	c-0.256-0.111-0.568-0.056-0.77,0.156l-3.926,3.926c-0.279,0.279-0.279,0.725,0,1.004L12.885,15.926z"/>
</svg>
