<?xml version="1.0" encoding="utf-8"?>
<!-- Generator: Adobe Illustrator 18.0.0, SVG Export Plug-In . SVG Version: 6.00 Build 0)  -->
<!DOCTYPE svg PUBLIC "-//W3C//DTD SVG 1.1//EN" "http://www.w3.org/Graphics/SVG/1.1/DTD/svg11.dtd">
<svg version="1.1" id="Layer_1" xmlns="http://www.w3.org/2000/svg" xmlns:xlink="http://www.w3.org/1999/xlink" x="0px" y="0px"
	 viewBox="291.5 380.8 31 28.3" enable-background="new 291.5 380.8 31 28.3" xml:space="preserve">
<g>
	<g>
		<path fill="#FFFFFF" d="M318,408.6h-22c-2.2,0-4-1.8-4-4v-19.3c0-2.2,1.8-4,4-4h22c2.2,0,4,1.8,4,4v19.3
			C322,406.8,320.2,408.6,318,408.6z"/>
		<path fill="#6B6561" d="M318,409.1h-22c-2.5,0-4.5-2-4.5-4.5v-19.3c0-2.5,2-4.5,4.5-4.5h22c2.5,0,4.5,2,4.5,4.5v19.3
			C322.5,407.1,320.4,409.1,318,409.1z M296,381.9c-1.9,0-3.5,1.6-3.5,3.5v19.3c0,1.9,1.6,3.5,3.5,3.5h22c1.9,0,3.5-1.6,3.5-3.5
			v-19.3c0-1.9-1.6-3.5-3.5-3.5H296z"/>
	</g>
	<g>
		<g>
			<g>
				<g>
					<path fill="#4E4845" d="M316.4,388.6h-14c-0.6,0-1-0.4-1-1s0.4-1,1-1h14c0.6,0,1,0.4,1,1S317,388.6,316.4,388.6z"/>
				</g>
				<g>
					<path fill="#4E4845" d="M316.4,393.8h-14c-0.6,0-1-0.4-1-1s0.4-1,1-1h14c0.6,0,1,0.4,1,1S317,393.8,316.4,393.8z"/>
				</g>
				<g>
					<path fill="#4E4845" d="M316.4,398.9h-14c-0.6,0-1-0.4-1-1s0.4-1,1-1h14c0.6,0,1,0.4,1,1S317,398.9,316.4,398.9z"/>
				</g>
				<g>
					<path fill="#4E4845" d="M316.4,404.1h-14c-0.6,0-1-0.4-1-1s0.4-1,1-1h14c0.6,0,1,0.4,1,1S317,404.1,316.4,404.1z"/>
				</g>
			</g>
		</g>
		<g>
			<path fill="#668DB4" d="M296.7,389.1h0.7v-1.3c0-0.1,0-0.2,0-0.2l0,0c0,0,0,0.1-0.1,0.2l-0.2,0.2l-0.4-0.5l0.8-0.8h0.6v2.4h0.7
				v0.6h-2v-0.6H296.7z"/>
			<path fill="#668DB4" d="M296.6,394.2c0-1.1,1.3-1.3,1.3-1.8c0-0.2-0.2-0.3-0.3-0.3c-0.3,0-0.5,0.3-0.5,0.3l-0.6-0.4
				c0,0,0.3-0.7,1.1-0.7c0.5,0,1.1,0.3,1.1,0.9c0,1-1.2,1.1-1.3,1.5h1.3v0.6h-2.1C296.6,394.4,296.6,394.3,296.6,394.2z"/>
			<path fill="#668DB4" d="M296.9,398.4c0,0,0.3,0.3,0.6,0.3c0.3,0,0.4-0.1,0.4-0.3c0-0.2-0.2-0.3-0.6-0.3h-0.2l-0.2-0.4l0.4-0.5
				c0.1-0.2,0.3-0.3,0.3-0.3l0,0c0,0-0.1,0-0.3,0h-0.7v-0.6h1.9v0.5l-0.6,0.7c0.5,0.1,0.7,0.5,0.7,0.9c0,0.5-0.4,1.1-1.1,1.1
				s-1.1-0.4-1.1-0.4L296.9,398.4z"/>
			<path fill="#668DB4" d="M296.5,402.9l1.2-1.9h0.9v1.7h0.4v0.6h-0.4v0.7h-0.7v-0.7h-1.4V402.9z M297.9,402.8v-0.7
				c0-0.2,0-0.3,0-0.3l0,0c0,0-0.1,0.2-0.2,0.3l-0.5,0.7l0,0H297.9z"/>
		</g>
	</g>
</g>
</svg>
