<?xml version="1.0" encoding="utf-8"?>
<!-- Generator: Adobe Illustrator 18.0.0, SVG Export Plug-In . SVG Version: 6.00 Build 0)  -->
<!DOCTYPE svg PUBLIC "-//W3C//DTD SVG 1.1//EN" "http://www.w3.org/Graphics/SVG/1.1/DTD/svg11.dtd">
<svg version="1.1" id="Layer_1" xmlns="http://www.w3.org/2000/svg" xmlns:xlink="http://www.w3.org/1999/xlink" x="0px" y="0px"
	 viewBox="0 0 29.989 27.278" style="enable-background:new 0 0 29.989 27.278;" xml:space="preserve">
<style type="text/css">
	.st0{fill:#FFFFFF;}
</style>
<g>
	<g>
		<g>
			<path class="st0" d="M23.995,6.9h-18c-0.552,0-1-0.448-1-1s0.448-1,1-1h18c0.552,0,1,0.448,1,1S24.547,6.9,23.995,6.9z"/>
		</g>
		<g>
			<path class="st0" d="M23.995,12.059h-18c-0.552,0-1-0.448-1-1s0.448-1,1-1h18c0.552,0,1,0.448,1,1S24.547,12.059,23.995,12.059z"
				/>
		</g>
		<g>
			<path class="st0" d="M23.995,17.218h-18c-0.552,0-1-0.448-1-1c0-0.552,0.448-1,1-1h18c0.552,0,1,0.448,1,1
				C24.995,16.771,24.547,17.218,23.995,17.218z"/>
		</g>
		<g>
			<path class="st0" d="M23.995,22.378h-18c-0.552,0-1-0.448-1-1s0.448-1,1-1h18c0.552,0,1,0.448,1,1S24.547,22.378,23.995,22.378z"
				/>
		</g>
	</g>
</g>
</svg>
