<?xml version="1.0" encoding="utf-8"?>
<!-- Generator: Adobe Illustrator 18.0.0, SVG Export Plug-In . SVG Version: 6.00 Build 0)  -->
<!DOCTYPE svg PUBLIC "-//W3C//DTD SVG 1.1//EN" "http://www.w3.org/Graphics/SVG/1.1/DTD/svg11.dtd">
<svg version="1.1" id="Layer_1" xmlns="http://www.w3.org/2000/svg" xmlns:xlink="http://www.w3.org/1999/xlink" x="0px" y="0px"
	 viewBox="0 0 29.989 27.278" style="enable-background:new 0 0 29.989 27.278;" xml:space="preserve">
<style type="text/css">
	.st0{fill:#FFFFFF;}
</style>
<g>
	<path class="st0" d="M21.995,6.9h-14c-0.552,0-1-0.448-1-1s0.448-1,1-1h14c0.552,0,1,0.448,1,1S22.547,6.9,21.995,6.9z"/>
	<path class="st0" d="M21.995,22.378h-14c-0.552,0-1-0.448-1-1s0.448-1,1-1h14c0.552,0,1,0.448,1,1S22.547,22.378,21.995,22.378z"/>
	<polygon class="st0" points="15.495,11.577 17.444,11.577 14.995,8.374 12.545,11.577 14.495,11.577 14.495,15.7 12.545,15.7 
		14.995,18.903 17.444,15.7 15.495,15.7 	"/>
</g>
</svg>
