<?xml version="1.0" encoding="utf-8"?>
<!-- Generator: Adobe Illustrator 18.0.0, SVG Export Plug-In . SVG Version: 6.00 Build 0)  -->
<!DOCTYPE svg PUBLIC "-//W3C//DTD SVG 1.1//EN" "http://www.w3.org/Graphics/SVG/1.1/DTD/svg11.dtd">
<svg version="1.1" id="Layer_1" xmlns="http://www.w3.org/2000/svg" xmlns:xlink="http://www.w3.org/1999/xlink" x="0px" y="0px"
	 viewBox="0 0 29.989 27.278" style="enable-background:new 0 0 29.989 27.278;" xml:space="preserve">
<style type="text/css">
	.st0{fill:#FFFFFF;}
	.st1{fill:#9B9991;}
</style>
<g>
	<path class="st0" d="M22.834,6.594c-0.201,0.007-0.494,0.05-0.881,0.129c-0.387,0.079-0.702,0.197-0.946,0.355
		c-0.244,0.165-0.412,0.505-0.505,1.021c-0.093,0.516-0.14,1.147-0.14,1.891v3.966c0,0.846-0.176,1.58-0.527,2.203
		c-0.351,0.623-0.813,1.136-1.386,1.537c-0.566,0.387-1.163,0.665-1.789,0.833c-0.627,0.168-1.227,0.252-1.8,0.252
		c-0.917,0-1.734-0.12-2.45-0.36c-0.717-0.24-1.318-0.564-1.805-0.973c-0.48-0.408-0.842-0.876-1.085-1.403
		c-0.244-0.526-0.365-1.076-0.365-1.649V8.045c0-0.251-0.041-0.46-0.124-0.628c-0.083-0.169-0.249-0.324-0.5-0.468
		c-0.179-0.1-0.408-0.181-0.688-0.242C7.563,6.646,7.334,6.609,7.155,6.594V5.831h6.351v0.763c-0.201,0.007-0.453,0.04-0.758,0.097
		c-0.305,0.057-0.529,0.111-0.672,0.161c-0.244,0.086-0.407,0.229-0.489,0.429c-0.083,0.201-0.124,0.419-0.124,0.655v5.754
		c0,0.408,0.045,0.836,0.134,1.283c0.089,0.447,0.267,0.864,0.532,1.251c0.279,0.394,0.659,0.716,1.139,0.967
		c0.48,0.251,1.139,0.376,1.977,0.376c0.788,0,1.449-0.125,1.983-0.376c0.534-0.251,0.954-0.58,1.263-0.988
		c0.294-0.387,0.501-0.791,0.623-1.213c0.122-0.423,0.183-0.848,0.183-1.278v-3.585c0-0.795-0.057-1.444-0.172-1.949
		c-0.115-0.505-0.283-0.835-0.505-0.993c-0.251-0.179-0.593-0.318-1.026-0.419c-0.434-0.1-0.765-0.157-0.994-0.172V5.831h6.233
		V6.594z"/>
	<rect x="8.313" y="20.288" class="st0" width="13.119" height="1.158"/>
	<path class="st1" d="M24.732,25.877H5.257c-1.378,0-2.5-1.122-2.5-2.5V3.901c0-1.378,1.122-2.5,2.5-2.5h19.475
		c1.378,0,2.5,1.122,2.5,2.5v19.475C27.232,24.755,26.111,25.877,24.732,25.877z M5.257,2.401c-0.827,0-1.5,0.673-1.5,1.5v19.475
		c0,0.827,0.673,1.5,1.5,1.5h19.475c0.827,0,1.5-0.673,1.5-1.5V3.901c0-0.827-0.673-1.5-1.5-1.5H5.257z"/>
</g>
</svg>
