<?xml version="1.0" encoding="utf-8"?>
<!-- Generator: Adobe Illustrator 18.0.0, SVG Export Plug-In . SVG Version: 6.00 Build 0)  -->
<!DOCTYPE svg PUBLIC "-//W3C//DTD SVG 1.1//EN" "http://www.w3.org/Graphics/SVG/1.1/DTD/svg11.dtd">
<svg version="1.1" id="Layer_1" xmlns="http://www.w3.org/2000/svg" xmlns:xlink="http://www.w3.org/1999/xlink" x="0px" y="0px"
	 viewBox="291.6 382.8 31 28.3" enable-background="new 291.6 382.8 31 28.3" xml:space="preserve">
<g>
	<g>
		<path fill="#FFFFFF" d="M318.1,410.6h-22c-2.2,0-4-1.8-4-4v-19.3c0-2.2,1.8-4,4-4h22c2.2,0,4,1.8,4,4v19.3
			C322.1,408.8,320.3,410.6,318.1,410.6z"/>
		<path fill="#6B6561" d="M318.1,411.1h-22c-2.5,0-4.5-2-4.5-4.5v-19.3c0-2.5,2-4.5,4.5-4.5h22c2.5,0,4.5,2,4.5,4.5v19.3
			C322.6,409.1,320.6,411.1,318.1,411.1z M296.1,383.9c-1.9,0-3.5,1.6-3.5,3.5v19.3c0,1.9,1.6,3.5,3.5,3.5h22c1.9,0,3.5-1.6,3.5-3.5
			v-19.3c0-1.9-1.6-3.5-3.5-3.5H296.1z"/>
	</g>
	<g>
		<g>
			<g>
				<path fill="#4E4845" d="M317.3,390.6h-14c-0.6,0-1-0.4-1-1s0.4-1,1-1h14c0.6,0,1,0.4,1,1S317.8,390.6,317.3,390.6z"/>
				<circle fill="#668DB4" cx="297.6" cy="389.6" r="1.6"/>
			</g>
			<g>
				<path fill="#4E4845" d="M317.3,395.8h-14c-0.6,0-1-0.4-1-1s0.4-1,1-1h14c0.6,0,1,0.4,1,1S317.8,395.8,317.3,395.8z"/>
				<circle fill="#668DB4" cx="297.6" cy="394.8" r="1.6"/>
			</g>
			<g>
				<path fill="#4E4845" d="M317.3,400.9h-14c-0.6,0-1-0.4-1-1s0.4-1,1-1h14c0.6,0,1,0.4,1,1S317.8,400.9,317.3,400.9z"/>
				<circle fill="#668DB4" cx="297.6" cy="399.9" r="1.6"/>
			</g>
			<g>
				<path fill="#4E4845" d="M317.3,406.1h-14c-0.6,0-1-0.4-1-1s0.4-1,1-1h14c0.6,0,1,0.4,1,1S317.8,406.1,317.3,406.1z"/>
				<circle fill="#668DB4" cx="297.6" cy="405.1" r="1.6"/>
			</g>
		</g>
	</g>
</g>
</svg>
