<?xml version="1.0" encoding="utf-8"?>
<!-- Generator: Adobe Illustrator 18.0.0, SVG Export Plug-In . SVG Version: 6.00 Build 0)  -->
<!DOCTYPE svg PUBLIC "-//W3C//DTD SVG 1.1//EN" "http://www.w3.org/Graphics/SVG/1.1/DTD/svg11.dtd">
<svg version="1.1" id="Layer_1" xmlns="http://www.w3.org/2000/svg" xmlns:xlink="http://www.w3.org/1999/xlink" x="0px" y="0px"
	 viewBox="290.5 382.3 31 28.3" enable-background="new 290.5 382.3 31 28.3" xml:space="preserve">
<g>
	<path fill="none" stroke="#9B9991" stroke-miterlimit="10" d="M317,410.1h-22c-2.2,0-4-1.8-4-4v-19.3c0-2.2,1.8-4,4-4h22
		c2.2,0,4,1.8,4,4v19.3C321,408.3,319.2,410.1,317,410.1z"/>
	<g>
		<g>
			<g>
				<path fill="#FFFFFF" d="M316.1,390h-14c-0.6,0-1-0.4-1-1s0.4-1,1-1h14c0.6,0,1,0.4,1,1S316.7,390,316.1,390z"/>
				<circle fill="#FFFFFF" cx="296.5" cy="389" r="1.6"/>
			</g>
			<g>
				<path fill="#FFFFFF" d="M316.1,395.2h-14c-0.6,0-1-0.4-1-1s0.4-1,1-1h14c0.6,0,1,0.4,1,1S316.7,395.2,316.1,395.2z"/>
				<circle fill="#FFFFFF" cx="296.5" cy="394.2" r="1.6"/>
			</g>
			<g>
				<path fill="#FFFFFF" d="M316.1,400.4h-14c-0.6,0-1-0.4-1-1s0.4-1,1-1h14c0.6,0,1,0.4,1,1S316.7,400.4,316.1,400.4z"/>
				<circle fill="#FFFFFF" cx="296.5" cy="399.4" r="1.6"/>
			</g>
			<g>
				<path fill="#FFFFFF" d="M316.1,405.5h-14c-0.6,0-1-0.4-1-1s0.4-1,1-1h14c0.6,0,1,0.4,1,1S316.7,405.5,316.1,405.5z"/>
				<circle fill="#FFFFFF" cx="296.5" cy="404.5" r="1.6"/>
			</g>
		</g>
	</g>
</g>
</svg>
