<?xml version="1.0" encoding="utf-8"?>
<!-- Generator: Adobe Illustrator 18.0.0, SVG Export Plug-In . SVG Version: 6.00 Build 0)  -->
<!DOCTYPE svg PUBLIC "-//W3C//DTD SVG 1.1//EN" "http://www.w3.org/Graphics/SVG/1.1/DTD/svg11.dtd">
<svg version="1.1" id="Layer_1" xmlns="http://www.w3.org/2000/svg" xmlns:xlink="http://www.w3.org/1999/xlink" x="0px" y="0px"
	 viewBox="0 0 29.989 27.278" style="enable-background:new 0 0 29.989 27.278;" xml:space="preserve">
<style type="text/css">
	.st0{fill:#FFFFFF;}
	.st1{fill:#9B9991;}
	.st2{fill:#4E4845;}
</style>
<g>
	<g>
		<g>
			<path class="st0" d="M24.732,25.376H5.257c-1.1,0-2-0.9-2-2V3.901c0-1.1,0.9-2,2-2h19.475c1.1,0,2,0.9,2,2v19.475
				C26.732,24.476,25.832,25.376,24.732,25.376z"/>
			<path class="st1" d="M24.732,25.876H5.257c-1.378,0-2.5-1.122-2.5-2.5V3.902c0-1.378,1.122-2.5,2.5-2.5h19.475
				c1.378,0,2.5,1.122,2.5,2.5v19.475C27.232,24.755,26.111,25.876,24.732,25.876z M5.257,2.402c-0.827,0-1.5,0.673-1.5,1.5v19.475
				c0,0.827,0.673,1.5,1.5,1.5h19.475c0.827,0,1.5-0.673,1.5-1.5V3.902c0-0.827-0.673-1.5-1.5-1.5H5.257z"/>
		</g>
	</g>
	<path class="st2" d="M20.194,6.014l-0.161,0.709c-0.222,0.007-0.512,0.04-0.87,0.097c-0.358,0.058-0.623,0.111-0.795,0.161
		c-0.301,0.093-0.516,0.236-0.645,0.43c-0.129,0.193-0.222,0.406-0.279,0.638l-2.587,11.143c-0.014,0.049-0.025,0.105-0.032,0.17
		c-0.007,0.064-0.011,0.122-0.011,0.172c0,0.165,0.036,0.305,0.107,0.419c0.072,0.115,0.201,0.215,0.387,0.301
		c0.107,0.05,0.344,0.109,0.709,0.178c0.365,0.068,0.638,0.109,0.817,0.123l-0.161,0.709H9.795l0.161-0.709
		c0.201-0.014,0.487-0.036,0.86-0.064c0.372-0.028,0.637-0.071,0.795-0.129c0.279-0.1,0.491-0.238,0.634-0.414
		c0.143-0.175,0.24-0.388,0.29-0.639l2.579-11.155c0.014-0.064,0.025-0.129,0.032-0.193c0.007-0.064,0.011-0.129,0.011-0.193
		c0-0.143-0.031-0.269-0.092-0.376c-0.061-0.107-0.188-0.204-0.382-0.29c-0.193-0.086-0.457-0.166-0.79-0.242
		c-0.333-0.075-0.579-0.119-0.736-0.134l0.161-0.709H20.194z"/>
</g>
</svg>
