<?xml version="1.0" encoding="utf-8"?>
<!-- Generator: Adobe Illustrator 18.0.0, SVG Export Plug-In . SVG Version: 6.00 Build 0)  -->
<!DOCTYPE svg PUBLIC "-//W3C//DTD SVG 1.1//EN" "http://www.w3.org/Graphics/SVG/1.1/DTD/svg11.dtd">
<svg version="1.1" id="Layer_1" xmlns="http://www.w3.org/2000/svg" xmlns:xlink="http://www.w3.org/1999/xlink" x="0px" y="0px"
	 viewBox="0 0 29.989 27.278" style="enable-background:new 0 0 29.989 27.278;" xml:space="preserve">
<style type="text/css">
	.st0{fill:#FFFFFF;}
	.st1{fill:#9B9991;}
</style>
<g>
	<path class="st0" d="M20.954,14.268c0.458,0.316,0.831,0.711,1.118,1.187c0.286,0.477,0.43,1.037,0.43,1.682
		c0,0.774-0.163,1.428-0.489,1.962c-0.326,0.533-0.794,0.955-1.402,1.262c-0.645,0.33-1.388,0.563-2.23,0.699
		c-0.842,0.136-1.832,0.204-2.971,0.204h-7.92v-0.838c0.222-0.021,0.501-0.054,0.838-0.097c0.337-0.043,0.573-0.093,0.709-0.15
		c0.265-0.107,0.446-0.249,0.543-0.425c0.097-0.175,0.145-0.403,0.145-0.682V8.325c0-0.258-0.04-0.473-0.118-0.645
		c-0.079-0.172-0.269-0.322-0.57-0.451c-0.222-0.093-0.48-0.17-0.774-0.231C7.968,6.937,7.71,6.889,7.488,6.852V6.014h8.286
		c2.085,0,3.589,0.287,4.514,0.86c0.924,0.574,1.386,1.419,1.386,2.536c0,0.516-0.104,0.969-0.312,1.359
		c-0.208,0.391-0.505,0.73-0.892,1.016c-0.351,0.265-0.77,0.494-1.257,0.688c-0.487,0.193-1.01,0.355-1.569,0.484v0.204
		c0.559,0.058,1.139,0.181,1.741,0.371C19.987,13.721,20.509,13.967,20.954,14.268z M17.493,9.679c0-0.845-0.238-1.505-0.715-1.977
		c-0.477-0.473-1.191-0.709-2.144-0.709c-0.136,0-0.314,0.006-0.532,0.016c-0.219,0.011-0.407,0.02-0.564,0.027v5.653h0.559
		c1.161,0,2.017-0.27,2.568-0.811C17.217,11.335,17.493,10.603,17.493,9.679z M18.246,17.002c0-1.062-0.315-1.876-0.946-2.443
		c-0.631-0.567-1.537-0.851-2.719-0.851c-0.136,0-0.317,0.005-0.543,0.016c-0.226,0.01-0.392,0.02-0.5,0.027v5.587
		c0.064,0.266,0.265,0.49,0.602,0.673c0.337,0.183,0.745,0.274,1.225,0.274c0.852,0,1.546-0.287,2.079-0.861
		C17.979,18.851,18.246,18.043,18.246,17.002z"/>
	<path class="st1" d="M24.732,25.876H5.257c-1.378,0-2.5-1.121-2.5-2.5V3.901c0-1.378,1.122-2.5,2.5-2.5h19.475
		c1.379,0,2.5,1.122,2.5,2.5v19.475C27.232,24.755,26.111,25.876,24.732,25.876z M5.257,2.401c-0.827,0-1.5,0.673-1.5,1.5v19.475
		c0,0.827,0.673,1.5,1.5,1.5h19.475c0.827,0,1.5-0.673,1.5-1.5V3.901c0-0.827-0.673-1.5-1.5-1.5H5.257z"/>
</g>
</svg>
