<?xml version="1.0" encoding="utf-8"?>
<!-- Generator: Adobe Illustrator 18.0.0, SVG Export Plug-In . SVG Version: 6.00 Build 0)  -->
<!DOCTYPE svg PUBLIC "-//W3C//DTD SVG 1.1//EN" "http://www.w3.org/Graphics/SVG/1.1/DTD/svg11.dtd">
<svg version="1.1" id="Layer_1" xmlns="http://www.w3.org/2000/svg" xmlns:xlink="http://www.w3.org/1999/xlink" x="0px" y="0px"
	 viewBox="290.1 382.3 31 28.3" enable-background="new 290.1 382.3 31 28.3" xml:space="preserve">
<g>
	<path fill="none" stroke="#9B9991" stroke-miterlimit="10" d="M316.6,410.1h-22c-2.2,0-4-1.8-4-4v-19.3c0-2.2,1.8-4,4-4h22
		c2.2,0,4,1.8,4,4v19.3C320.6,408.3,318.8,410.1,316.6,410.1z"/>
	<g>
		<path fill="#FFFFFF" d="M314.1,389.5h-17c-0.6,0-1-0.4-1-1s0.4-1,1-1h17c0.6,0,1,0.4,1,1S314.6,389.5,314.1,389.5z"/>
		<g>
			<path fill="#A9C5FC" d="M297.3,393.1h-0.2c-0.3,0-0.5-0.2-0.5-0.5s0.2-0.5,0.5-0.5h0.2c0.3,0,0.5,0.2,0.5,0.5
				S297.6,393.1,297.3,393.1z"/>
			<path fill="#A9C5FC" d="M311.9,393.1h-0.5c-0.3,0-0.5-0.2-0.5-0.5s0.2-0.5,0.5-0.5h0.5c0.3,0,0.5,0.2,0.5,0.5
				S312.2,393.1,311.9,393.1z M309.5,393.1H309c-0.3,0-0.5-0.2-0.5-0.5s0.2-0.5,0.5-0.5h0.5c0.3,0,0.5,0.2,0.5,0.5
				S309.8,393.1,309.5,393.1z M307.1,393.1h-0.5c-0.3,0-0.5-0.2-0.5-0.5s0.2-0.5,0.5-0.5h0.5c0.3,0,0.5,0.2,0.5,0.5
				S307.3,393.1,307.1,393.1z M304.6,393.1h-0.5c-0.3,0-0.5-0.2-0.5-0.5s0.2-0.5,0.5-0.5h0.5c0.3,0,0.5,0.2,0.5,0.5
				S304.9,393.1,304.6,393.1z M302.2,393.1h-0.5c-0.3,0-0.5-0.2-0.5-0.5s0.2-0.5,0.5-0.5h0.5c0.3,0,0.5,0.2,0.5,0.5
				S302.5,393.1,302.2,393.1z M299.8,393.1h-0.5c-0.3,0-0.5-0.2-0.5-0.5s0.2-0.5,0.5-0.5h0.5c0.3,0,0.5,0.2,0.5,0.5
				S300,393.1,299.8,393.1z"/>
			<path fill="#A9C5FC" d="M314.1,393.1h-0.2c-0.3,0-0.5-0.2-0.5-0.5s0.2-0.5,0.5-0.5h0.2c0.3,0,0.5,0.2,0.5,0.5
				S314.4,393.1,314.1,393.1z"/>
		</g>
		<g>
			<path fill="#A9C5FC" d="M297.3,401.4h-0.2c-0.3,0-0.5-0.2-0.5-0.5s0.2-0.5,0.5-0.5h0.2c0.3,0,0.5,0.2,0.5,0.5
				S297.6,401.4,297.3,401.4z"/>
			<path fill="#A9C5FC" d="M311.9,401.4h-0.5c-0.3,0-0.5-0.2-0.5-0.5s0.2-0.5,0.5-0.5h0.5c0.3,0,0.5,0.2,0.5,0.5
				S312.2,401.4,311.9,401.4z M309.5,401.4H309c-0.3,0-0.5-0.2-0.5-0.5s0.2-0.5,0.5-0.5h0.5c0.3,0,0.5,0.2,0.5,0.5
				S309.8,401.4,309.5,401.4z M307.1,401.4h-0.5c-0.3,0-0.5-0.2-0.5-0.5s0.2-0.5,0.5-0.5h0.5c0.3,0,0.5,0.2,0.5,0.5
				S307.3,401.4,307.1,401.4z M304.6,401.4h-0.5c-0.3,0-0.5-0.2-0.5-0.5s0.2-0.5,0.5-0.5h0.5c0.3,0,0.5,0.2,0.5,0.5
				S304.9,401.4,304.6,401.4z M302.2,401.4h-0.5c-0.3,0-0.5-0.2-0.5-0.5s0.2-0.5,0.5-0.5h0.5c0.3,0,0.5,0.2,0.5,0.5
				S302.5,401.4,302.2,401.4z M299.8,401.4h-0.5c-0.3,0-0.5-0.2-0.5-0.5s0.2-0.5,0.5-0.5h0.5c0.3,0,0.5,0.2,0.5,0.5
				S300,401.4,299.8,401.4z"/>
			<path fill="#A9C5FC" d="M314.1,401.4h-0.2c-0.3,0-0.5-0.2-0.5-0.5s0.2-0.5,0.5-0.5h0.2c0.3,0,0.5,0.2,0.5,0.5
				S314.4,401.4,314.1,401.4z"/>
		</g>
		<path fill="#FFFFFF" d="M314.1,397.7h-17c-0.6,0-1-0.4-1-1s0.4-1,1-1h17c0.6,0,1,0.4,1,1S314.6,397.7,314.1,397.7z"/>
		<path fill="#FFFFFF" d="M314.1,406h-17c-0.6,0-1-0.4-1-1s0.4-1,1-1h17c0.6,0,1,0.4,1,1S314.6,406,314.1,406z"/>
	</g>
</g>
</svg>
