<?xml version="1.0" encoding="utf-8"?>
<!-- Generator: Adobe Illustrator 18.0.0, SVG Export Plug-In . SVG Version: 6.00 Build 0)  -->
<!DOCTYPE svg PUBLIC "-//W3C//DTD SVG 1.1//EN" "http://www.w3.org/Graphics/SVG/1.1/DTD/svg11.dtd">
<svg version="1.1" id="Layer_1" xmlns="http://www.w3.org/2000/svg" xmlns:xlink="http://www.w3.org/1999/xlink" x="0px" y="0px"
	 viewBox="290.4 382.3 31 28.3" enable-background="new 290.4 382.3 31 28.3" xml:space="preserve">
<g>
	<path fill="none" stroke="#9B9991" stroke-miterlimit="10" d="M316.9,410.1h-22c-2.2,0-4-1.8-4-4v-19.3c0-2.2,1.8-4,4-4h22
		c2.2,0,4,1.8,4,4v19.3C320.9,408.3,319.1,410.1,316.9,410.1z"/>
	<g>
		<path fill="#FFFFFF" d="M314.4,389.2h-17c-0.6,0-1-0.4-1-1s0.4-1,1-1h17c0.6,0,1,0.4,1,1S314.9,389.2,314.4,389.2z"/>
		<path fill="#A9C5FC" d="M314.4,392.8h-17c-0.3,0-0.5-0.2-0.5-0.5s0.2-0.5,0.5-0.5h17c0.3,0,0.5,0.2,0.5,0.5
			S314.7,392.8,314.4,392.8z"/>
		<path fill="#A9C5FC" d="M314.4,401.1h-17c-0.3,0-0.5-0.2-0.5-0.5s0.2-0.5,0.5-0.5h17c0.3,0,0.5,0.2,0.5,0.5
			S314.7,401.1,314.4,401.1z"/>
		<path fill="#FFFFFF" d="M314.4,397.4h-17c-0.6,0-1-0.4-1-1s0.4-1,1-1h17c0.6,0,1,0.4,1,1S314.9,397.4,314.4,397.4z"/>
		<path fill="#FFFFFF" d="M314.4,405.7h-17c-0.6,0-1-0.4-1-1s0.4-1,1-1h17c0.6,0,1,0.4,1,1S314.9,405.7,314.4,405.7z"/>
	</g>
</g>
</svg>
