<?xml version="1.0" encoding="utf-8"?>
<!-- Generator: Adobe Illustrator 18.0.0, SVG Export Plug-In . SVG Version: 6.00 Build 0)  -->
<!DOCTYPE svg PUBLIC "-//W3C//DTD SVG 1.1//EN" "http://www.w3.org/Graphics/SVG/1.1/DTD/svg11.dtd">
<svg version="1.1" id="Layer_1" xmlns="http://www.w3.org/2000/svg" xmlns:xlink="http://www.w3.org/1999/xlink" x="0px" y="0px"
	 viewBox="0 0 29.989 27.278" style="enable-background:new 0 0 29.989 27.278;" xml:space="preserve">
<style type="text/css">
	.st0{fill:#FFFFFF;}
</style>
<g>
	<path class="st0" d="M23.316,7.022H6.674c-0.552,0-1-0.448-1-1s0.448-1,1-1h16.642c0.552,0,1,0.448,1,1S23.868,7.022,23.316,7.022z
		"/>
	<path class="st0" d="M19.155,22.255h-8.321c-0.552,0-1-0.448-1-1s0.448-1,1-1h8.321c0.552,0,1,0.448,1,1
		S19.707,22.255,19.155,22.255z"/>
	<path class="st0" d="M19.369,12.1h-8.75c-0.552,0-1-0.448-1-1s0.448-1,1-1h8.75c0.552,0,1,0.448,1,1S19.922,12.1,19.369,12.1z"/>
	<path class="st0" d="M21.494,17.178h-13c-0.552,0-1-0.448-1-1c0-0.552,0.448-1,1-1h13c0.552,0,1,0.448,1,1
		C22.494,16.73,22.047,17.178,21.494,17.178z"/>
</g>
</svg>
