<?xml version="1.0" encoding="utf-8"?>
<!-- Generator: Adobe Illustrator 18.0.0, SVG Export Plug-In . SVG Version: 6.00 Build 0)  -->
<!DOCTYPE svg PUBLIC "-//W3C//DTD SVG 1.1//EN" "http://www.w3.org/Graphics/SVG/1.1/DTD/svg11.dtd">
<svg version="1.1" id="Layer_1" xmlns="http://www.w3.org/2000/svg" xmlns:xlink="http://www.w3.org/1999/xlink" x="0px" y="0px"
	 viewBox="0 0 29.989 27.278" style="enable-background:new 0 0 29.989 27.278;" xml:space="preserve">
<style type="text/css">
	.st0{fill:#FFFFFF;}
</style>
<path class="st0" d="M21.03,12c0.279-0.279,0.279-0.725,0-1.004l-3.926-3.926c-0.201-0.212-0.514-0.268-0.77-0.156
	c-0.269,0.112-0.446,0.368-0.446,0.658v1.785c-6.402,0-7.139,3.67-7.139,6.425c0,2.242,1.796,4.417,1.862,4.506
	c0.078,0.089,0.179,0.134,0.279,0.134c0.044,0,0.101-0.011,0.145-0.034c0.146-0.056,0.234-0.212,0.212-0.368
	c-0.334-2.688-0.122-4.361,0.691-5.276c0.681-0.77,1.863-1.104,3.949-1.104v1.785c0,0.29,0.178,0.546,0.446,0.658
	c0.078,0.033,0.178,0.056,0.268,0.056c0.189,0,0.368-0.078,0.502-0.212L21.03,12z"/>
</svg>
