<?xml version="1.0" encoding="utf-8"?>
<!-- Generator: Adobe Illustrator 18.0.0, SVG Export Plug-In . SVG Version: 6.00 Build 0)  -->
<!DOCTYPE svg PUBLIC "-//W3C//DTD SVG 1.1//EN" "http://www.w3.org/Graphics/SVG/1.1/DTD/svg11.dtd">
<svg version="1.1" id="Layer_1" xmlns="http://www.w3.org/2000/svg" xmlns:xlink="http://www.w3.org/1999/xlink" x="0px" y="0px"
	 viewBox="0 0 16 34" style="enable-background:new 0 0 16 34;" xml:space="preserve">
<style type="text/css">
	.st0{fill:#9B9991;}
	.st1{fill:#FFFFFF;}
	.st2{fill:#686763;}
	.st3{fill:#B2B1AA;}
</style>
<g>
	<path class="st0" d="M13.516,33.367H2.484c-1.1,0-2-0.9-2-2V2.633c0-1.1,0.9-2,2-2h11.032c1.105,0,2,0.895,2,2v28.734
		C15.516,32.472,14.62,33.367,13.516,33.367z"/>
</g>
<rect x="3.571" y="24.232" class="st1" width="8.858" height="2.563"/>
<polygon class="st1" points="12.429,9.972 12.428,7.41 9.281,7.41 9.281,4.263 6.719,4.263 6.719,7.41 3.571,7.409 3.572,9.972 
	6.719,9.972 6.719,13.119 9.281,13.119 9.281,9.972 "/>
<rect x="0.484" y="15.886" class="st2" width="15.032" height="1.063"/>
<rect x="0.484" y="16.949" class="st3" width="15.032" height="1.063"/>
</svg>
