<?xml version="1.0" encoding="utf-8"?>
<!-- Generator: Adobe Illustrator 18.0.0, SVG Export Plug-In . SVG Version: 6.00 Build 0)  -->
<!DOCTYPE svg PUBLIC "-//W3C//DTD SVG 1.1//EN" "http://www.w3.org/Graphics/SVG/1.1/DTD/svg11.dtd">
<svg version="1.1" id="Layer_1" xmlns="http://www.w3.org/2000/svg" xmlns:xlink="http://www.w3.org/1999/xlink" x="0px" y="0px"
	 viewBox="288.8 380.8 31 28.3" enable-background="new 288.8 380.8 31 28.3" xml:space="preserve">
<g>
	<g>
		<path fill="#FFFFFF" d="M315.3,408.6h-22c-2.2,0-4-1.8-4-4v-19.3c0-2.2,1.8-4,4-4h22c2.2,0,4,1.8,4,4v19.3
			C319.3,406.8,317.5,408.6,315.3,408.6z"/>
		<path fill="#6B6561" d="M315.3,409.1h-22c-2.5,0-4.5-2-4.5-4.5v-19.3c0-2.5,2-4.5,4.5-4.5h22c2.5,0,4.5,2,4.5,4.5v19.3
			C319.8,407.1,317.8,409.1,315.3,409.1z M293.3,381.9c-1.9,0-3.5,1.6-3.5,3.5v19.3c0,1.9,1.6,3.5,3.5,3.5h22c1.9,0,3.5-1.6,3.5-3.5
			v-19.3c0-1.9-1.6-3.5-3.5-3.5H293.3z"/>
	</g>
	<path fill="#4E4845" d="M312.8,388h-17c-0.6,0-1-0.4-1-1s0.4-1,1-1h17c0.6,0,1,0.4,1,1S313.4,388,312.8,388z"/>
	<g>
		<path fill="#A9C5FC" d="M296.1,391.7h-0.2c-0.3,0-0.5-0.2-0.5-0.5s0.2-0.5,0.5-0.5h0.2c0.3,0,0.5,0.2,0.5,0.5
			S296.3,391.7,296.1,391.7z"/>
		<path fill="#A9C5FC" d="M310.6,391.7h-0.5c-0.3,0-0.5-0.2-0.5-0.5s0.2-0.5,0.5-0.5h0.5c0.3,0,0.5,0.2,0.5,0.5
			S310.9,391.7,310.6,391.7z M308.2,391.7h-0.5c-0.3,0-0.5-0.2-0.5-0.5s0.2-0.5,0.5-0.5h0.5c0.3,0,0.5,0.2,0.5,0.5
			S308.5,391.7,308.2,391.7z M305.8,391.7h-0.5c-0.3,0-0.5-0.2-0.5-0.5s0.2-0.5,0.5-0.5h0.5c0.3,0,0.5,0.2,0.5,0.5
			S306,391.7,305.8,391.7z M303.3,391.7h-0.5c-0.3,0-0.5-0.2-0.5-0.5s0.2-0.5,0.5-0.5h0.5c0.3,0,0.5,0.2,0.5,0.5
			S303.6,391.7,303.3,391.7z M300.9,391.7h-0.5c-0.3,0-0.5-0.2-0.5-0.5s0.2-0.5,0.5-0.5h0.5c0.3,0,0.5,0.2,0.5,0.5
			S301.2,391.7,300.9,391.7z M298.5,391.7H298c-0.3,0-0.5-0.2-0.5-0.5s0.2-0.5,0.5-0.5h0.5c0.3,0,0.5,0.2,0.5,0.5
			S298.8,391.7,298.5,391.7z"/>
		<path fill="#A9C5FC" d="M312.8,391.7h-0.2c-0.3,0-0.5-0.2-0.5-0.5s0.2-0.5,0.5-0.5h0.2c0.3,0,0.5,0.2,0.5,0.5
			S313.1,391.7,312.8,391.7z"/>
	</g>
	<g>
		<path fill="#A9C5FC" d="M296.1,399.9h-0.2c-0.3,0-0.5-0.2-0.5-0.5s0.2-0.5,0.5-0.5h0.2c0.3,0,0.5,0.2,0.5,0.5
			S296.3,399.9,296.1,399.9z"/>
		<path fill="#A9C5FC" d="M310.6,399.9h-0.5c-0.3,0-0.5-0.2-0.5-0.5s0.2-0.5,0.5-0.5h0.5c0.3,0,0.5,0.2,0.5,0.5
			S310.9,399.9,310.6,399.9z M308.2,399.9h-0.5c-0.3,0-0.5-0.2-0.5-0.5s0.2-0.5,0.5-0.5h0.5c0.3,0,0.5,0.2,0.5,0.5
			S308.5,399.9,308.2,399.9z M305.8,399.9h-0.5c-0.3,0-0.5-0.2-0.5-0.5s0.2-0.5,0.5-0.5h0.5c0.3,0,0.5,0.2,0.5,0.5
			S306,399.9,305.8,399.9z M303.3,399.9h-0.5c-0.3,0-0.5-0.2-0.5-0.5s0.2-0.5,0.5-0.5h0.5c0.3,0,0.5,0.2,0.5,0.5
			S303.6,399.9,303.3,399.9z M300.9,399.9h-0.5c-0.3,0-0.5-0.2-0.5-0.5s0.2-0.5,0.5-0.5h0.5c0.3,0,0.5,0.2,0.5,0.5
			S301.2,399.9,300.9,399.9z M298.5,399.9H298c-0.3,0-0.5-0.2-0.5-0.5s0.2-0.5,0.5-0.5h0.5c0.3,0,0.5,0.2,0.5,0.5
			S298.8,399.9,298.5,399.9z"/>
		<path fill="#A9C5FC" d="M312.8,399.9h-0.2c-0.3,0-0.5-0.2-0.5-0.5s0.2-0.5,0.5-0.5h0.2c0.3,0,0.5,0.2,0.5,0.5
			S313.1,399.9,312.8,399.9z"/>
	</g>
	<path fill="#4E4845" d="M312.8,396.3h-17c-0.6,0-1-0.4-1-1s0.4-1,1-1h17c0.6,0,1,0.4,1,1S313.4,396.3,312.8,396.3z"/>
	<path fill="#4E4845" d="M312.8,404.5h-17c-0.6,0-1-0.4-1-1s0.4-1,1-1h17c0.6,0,1,0.4,1,1S313.4,404.5,312.8,404.5z"/>
</g>
</svg>
