<?xml version="1.0" encoding="utf-8"?>
<!-- Generator: Adobe Illustrator 18.0.0, SVG Export Plug-In . SVG Version: 6.00 Build 0)  -->
<!DOCTYPE svg PUBLIC "-//W3C//DTD SVG 1.1//EN" "http://www.w3.org/Graphics/SVG/1.1/DTD/svg11.dtd">
<svg version="1.1" id="Layer_1" xmlns="http://www.w3.org/2000/svg" xmlns:xlink="http://www.w3.org/1999/xlink" x="0px" y="0px"
	 viewBox="0 0 29.989 27.278" style="enable-background:new 0 0 29.989 27.278;" xml:space="preserve">
<style type="text/css">
	.st0{fill:#FFFFFF;}
	.st1{fill:#9B9991;}
</style>
<g>
	<path class="st0" d="M25.495,14.639h-21c-0.552,0-1-0.448-1-1s0.448-1,1-1h21c0.552,0,1,0.448,1,1S26.047,14.639,25.495,14.639z"/>
	<path class="st1" d="M23.495,5.371h-17c-0.276,0-0.5-0.224-0.5-0.5s0.224-0.5,0.5-0.5h17c0.276,0,0.5,0.224,0.5,0.5
		S23.771,5.371,23.495,5.371z"/>
	<path class="st1" d="M23.495,9.355h-17c-0.276,0-0.5-0.224-0.5-0.5s0.224-0.5,0.5-0.5h17c0.276,0,0.5,0.224,0.5,0.5
		S23.771,9.355,23.495,9.355z"/>
	<path class="st1" d="M23.495,18.923h-17c-0.276,0-0.5-0.224-0.5-0.5s0.224-0.5,0.5-0.5h17c0.276,0,0.5,0.224,0.5,0.5
		S23.771,18.923,23.495,18.923z"/>
	<path class="st1" d="M23.495,22.907h-17c-0.276,0-0.5-0.224-0.5-0.5s0.224-0.5,0.5-0.5h17c0.276,0,0.5,0.224,0.5,0.5
		S23.771,22.907,23.495,22.907z"/>
</g>
</svg>
