<?xml version="1.0" encoding="utf-8"?>
<!-- Generator: Adobe Illustrator 18.0.0, SVG Export Plug-In . SVG Version: 6.00 Build 0)  -->
<!DOCTYPE svg PUBLIC "-//W3C//DTD SVG 1.1//EN" "http://www.w3.org/Graphics/SVG/1.1/DTD/svg11.dtd">
<svg version="1.1" id="Layer_1" xmlns="http://www.w3.org/2000/svg" xmlns:xlink="http://www.w3.org/1999/xlink" x="0px" y="0px"
	 viewBox="0 0 29.989 27.278" style="enable-background:new 0 0 29.989 27.278;" xml:space="preserve">
<style type="text/css">
	.st0{fill:#A9C5FC;}
	.st1{fill:#9B9991;}
	.st2{fill:#7F7A78;}
	.st3{fill:#FFFFFF;}
</style>
<g>
	<g>
		<line class="st0" x1="6.673" y1="6.023" x2="23.316" y2="6.023"/>
		<path class="st1" d="M23.316,6.522H6.674c-0.276,0-0.5-0.224-0.5-0.5s0.224-0.5,0.5-0.5h16.642c0.276,0,0.5,0.224,0.5,0.5
			S23.592,6.522,23.316,6.522z"/>
	</g>
	<path class="st2" d="M23.316,14.139H6.674c-0.276,0-0.5-0.224-0.5-0.5s0.224-0.5,0.5-0.5h16.642c0.276,0,0.5,0.224,0.5,0.5
		S23.592,14.139,23.316,14.139z"/>
	<g>
		<line class="st0" x1="6.673" y1="21.256" x2="23.316" y2="21.256"/>
		<path class="st1" d="M23.316,21.755H6.674c-0.276,0-0.5-0.224-0.5-0.5s0.224-0.5,0.5-0.5h16.642c0.276,0,0.5,0.224,0.5,0.5
			S23.592,21.755,23.316,21.755z"/>
	</g>
	<g>
		<path class="st3" d="M20.131,17.64h-4.769v-0.481c0.222-0.016,0.482-0.056,0.782-0.12c0.3-0.064,0.45-0.143,0.45-0.238
			c0-0.033-0.003-0.07-0.009-0.111c-0.006-0.041-0.024-0.097-0.052-0.167l-0.747-1.814h-3.022c-0.07,0.169-0.146,0.366-0.23,0.592
			c-0.084,0.226-0.156,0.428-0.218,0.605c-0.078,0.23-0.124,0.397-0.138,0.5c-0.015,0.103-0.022,0.175-0.022,0.216
			c0,0.132,0.1,0.244,0.299,0.336c0.199,0.093,0.531,0.16,0.995,0.201v0.481H9.859v-0.481c0.136-0.008,0.289-0.03,0.46-0.065
			s0.305-0.083,0.404-0.145c0.169-0.099,0.312-0.22,0.429-0.364c0.117-0.144,0.215-0.315,0.293-0.512
			c0.477-1.156,0.955-2.314,1.434-3.473s1.009-2.439,1.589-3.837h1.234c0.806,1.983,1.437,3.55,1.894,4.701
			c0.457,1.151,0.845,2.106,1.166,2.863c0.053,0.123,0.121,0.235,0.204,0.336c0.082,0.101,0.2,0.197,0.352,0.287
			c0.115,0.066,0.249,0.115,0.401,0.148s0.29,0.053,0.413,0.062V17.64z M15.531,14.098l-1.267-3.164l-1.248,3.164H15.531z"/>
	</g>
</g>
</svg>
