<?xml version="1.0" encoding="utf-8"?>
<!-- Generator: Adobe Illustrator 18.0.0, SVG Export Plug-In . SVG Version: 6.00 Build 0)  -->
<!DOCTYPE svg PUBLIC "-//W3C//DTD SVG 1.1//EN" "http://www.w3.org/Graphics/SVG/1.1/DTD/svg11.dtd">
<svg version="1.1" id="Layer_1" xmlns="http://www.w3.org/2000/svg" xmlns:xlink="http://www.w3.org/1999/xlink" x="0px" y="0px"
	 viewBox="290.5 381.8 31 28.3" enable-background="new 290.5 381.8 31 28.3" xml:space="preserve">
<g>
	<path fill="none" stroke="#9B9991" stroke-miterlimit="10" d="M317,409.6h-22c-2.2,0-4-1.8-4-4v-19.3c0-2.2,1.8-4,4-4h22
		c2.2,0,4,1.8,4,4v19.3C321,407.8,319.2,409.6,317,409.6z"/>
	<g>
		<g>
			<g>
				<g>
					<path fill="#FFFFFF" d="M315.4,389.6h-14c-0.6,0-1-0.4-1-1s0.4-1,1-1h14c0.6,0,1,0.4,1,1S316,389.6,315.4,389.6z"/>
				</g>
				<g>
					<path fill="#FFFFFF" d="M315.4,394.8h-14c-0.6,0-1-0.4-1-1s0.4-1,1-1h14c0.6,0,1,0.4,1,1S316,394.8,315.4,394.8z"/>
				</g>
				<g>
					<path fill="#FFFFFF" d="M315.4,399.9h-14c-0.6,0-1-0.4-1-1s0.4-1,1-1h14c0.6,0,1,0.4,1,1S316,399.9,315.4,399.9z"/>
				</g>
				<g>
					<path fill="#FFFFFF" d="M315.4,405.1h-14c-0.6,0-1-0.4-1-1s0.4-1,1-1h14c0.6,0,1,0.4,1,1S316,405.1,315.4,405.1z"/>
				</g>
			</g>
		</g>
		<g>
			<path fill="#FFFFFF" d="M295.7,390.1h0.7v-1.3c0-0.1,0-0.2,0-0.2l0,0c0,0,0,0.1-0.1,0.2l-0.2,0.2l-0.4-0.5l0.8-0.8h0.6v2.4h0.7
				v0.6h-2v-0.6H295.7z"/>
			<path fill="#FFFFFF" d="M295.7,395.2c0-1.1,1.3-1.3,1.3-1.8c0-0.2-0.2-0.3-0.3-0.3c-0.3,0-0.5,0.3-0.5,0.3l-0.6-0.4
				c0,0,0.3-0.7,1.1-0.7c0.5,0,1.1,0.3,1.1,0.9c0,1-1.2,1.1-1.3,1.5h1.3v0.6h-2.1C295.7,395.4,295.7,395.3,295.7,395.2z"/>
			<path fill="#FFFFFF" d="M295.9,399.4c0,0,0.3,0.3,0.6,0.3c0.3,0,0.4-0.1,0.4-0.3c0-0.2-0.2-0.3-0.6-0.3h-0.2l-0.2-0.4l0.4-0.5
				c0.1-0.2,0.3-0.3,0.3-0.3l0,0c0,0-0.1,0-0.3,0h-0.7v-0.6h1.9v0.5l-0.6,0.7c0.5,0.1,0.7,0.5,0.7,0.9c0,0.5-0.4,1.1-1.1,1.1
				s-1.1-0.4-1.1-0.4L295.9,399.4z"/>
			<path fill="#FFFFFF" d="M295.6,403.9l1.2-1.9h0.9v1.7h0.4v0.6h-0.4v0.7H297v-0.7h-1.4V403.9z M296.9,403.8v-0.7
				c0-0.2,0-0.3,0-0.3l0,0c0,0-0.1,0.2-0.2,0.3l-0.5,0.7l0,0H296.9z"/>
		</g>
	</g>
</g>
</svg>
