<?xml version="1.0" encoding="utf-8"?>
<!-- Generator: Adobe Illustrator 18.0.0, SVG Export Plug-In . SVG Version: 6.00 Build 0)  -->
<!DOCTYPE svg PUBLIC "-//W3C//DTD SVG 1.1//EN" "http://www.w3.org/Graphics/SVG/1.1/DTD/svg11.dtd">
<svg version="1.1" id="Layer_1" xmlns="http://www.w3.org/2000/svg" xmlns:xlink="http://www.w3.org/1999/xlink" x="0px" y="0px"
	 viewBox="290 381.8 31 28.3" enable-background="new 290 381.8 31 28.3" xml:space="preserve">
<g>
	<g>
		<path fill="#FFFFFF" d="M316.5,409.6h-22c-2.2,0-4-1.8-4-4v-19.3c0-2.2,1.8-4,4-4h22c2.2,0,4,1.8,4,4v19.3
			C320.5,407.8,318.7,409.6,316.5,409.6z"/>
		<path fill="#6B6561" d="M316.5,410.1h-22c-2.5,0-4.5-2-4.5-4.5v-19.3c0-2.5,2-4.5,4.5-4.5h22c2.5,0,4.5,2,4.5,4.5v19.3
			C321,408.1,318.9,410.1,316.5,410.1z M294.5,382.9c-1.9,0-3.5,1.6-3.5,3.5v19.3c0,1.9,1.6,3.5,3.5,3.5h22c1.9,0,3.5-1.6,3.5-3.5
			v-19.3c0-1.9-1.6-3.5-3.5-3.5H294.5z"/>
	</g>
	<path fill="#4E4845" d="M314,388.7h-17c-0.6,0-1-0.4-1-1s0.4-1,1-1h17c0.6,0,1,0.4,1,1S314.5,388.7,314,388.7z"/>
	<path fill="#A9C5FC" d="M314,392.4h-17c-0.3,0-0.5-0.2-0.5-0.5s0.2-0.5,0.5-0.5h17c0.3,0,0.5,0.2,0.5,0.5S314.2,392.4,314,392.4z"
		/>
	<path fill="#A9C5FC" d="M314,400.6h-17c-0.3,0-0.5-0.2-0.5-0.5s0.2-0.5,0.5-0.5h17c0.3,0,0.5,0.2,0.5,0.5S314.2,400.6,314,400.6z"
		/>
	<path fill="#4E4845" d="M314,397h-17c-0.6,0-1-0.4-1-1s0.4-1,1-1h17c0.6,0,1,0.4,1,1S314.5,397,314,397z"/>
	<path fill="#4E4845" d="M314,405.2h-17c-0.6,0-1-0.4-1-1s0.4-1,1-1h17c0.6,0,1,0.4,1,1S314.5,405.2,314,405.2z"/>
</g>
</svg>
